<mxfile host="app.diagrams.net" modified="2023-10-08T15:10:07.245Z" agent="Mozilla/5.0 (Macintosh; Intel Mac OS X 10_15_7) AppleWebKit/537.36 (KHTML, like Gecko) Chrome/115.0.0.0 Safari/537.36" etag="PRYCV3CK2RdH3efnUZ-o" version="21.5.2" type="device">
  <diagram name="Page-1" id="cfPqJcOAZDK_d3xBsmeo">
    <mxGraphModel dx="842" dy="1165" grid="0" gridSize="10" guides="1" tooltips="1" connect="1" arrows="1" fold="1" page="0" pageScale="1" pageWidth="850" pageHeight="1100" math="1" shadow="0">
      <root>
        <mxCell id="0" />
        <mxCell id="1" parent="0" />
        <mxCell id="eVUh2sTWQAKDTClY-ghB-1" value="" style="endArrow=none;html=1;rounded=0;exitX=1.002;exitY=0.901;exitDx=0;exitDy=0;exitPerimeter=0;strokeWidth=2;" edge="1" parent="1">
          <mxGeometry width="50" height="50" relative="1" as="geometry">
            <mxPoint x="1053.24" y="7.283999999999935" as="sourcePoint" />
            <mxPoint x="1470" y="-143.66000000000003" as="targetPoint" />
          </mxGeometry>
        </mxCell>
        <mxCell id="eVUh2sTWQAKDTClY-ghB-2" value="" style="endArrow=none;html=1;rounded=0;exitX=1.003;exitY=0.056;exitDx=0;exitDy=0;exitPerimeter=0;strokeWidth=2;" edge="1" parent="1">
          <mxGeometry width="50" height="50" relative="1" as="geometry">
            <mxPoint x="1053.36" y="-283.396" as="sourcePoint" />
            <mxPoint x="1470" y="-143.66000000000003" as="targetPoint" />
          </mxGeometry>
        </mxCell>
        <mxCell id="eVUh2sTWQAKDTClY-ghB-5" value="" style="endArrow=none;dashed=1;html=1;dashPattern=1 3;strokeWidth=2;rounded=0;" edge="1" parent="1">
          <mxGeometry width="50" height="50" relative="1" as="geometry">
            <mxPoint x="1036" y="-188.66000000000003" as="sourcePoint" />
            <mxPoint x="1469" y="-143.66000000000003" as="targetPoint" />
          </mxGeometry>
        </mxCell>
        <mxCell id="eVUh2sTWQAKDTClY-ghB-6" value="$$V$$" style="text;html=1;strokeColor=none;fillColor=none;align=center;verticalAlign=middle;whiteSpace=wrap;rounded=0;fontSize=18;" vertex="1" parent="1">
          <mxGeometry x="1010" y="-204.66000000000003" width="25" height="30" as="geometry" />
        </mxCell>
        <mxCell id="eVUh2sTWQAKDTClY-ghB-7" value="" style="endArrow=classic;html=1;rounded=0;exitX=1;exitY=0.5;exitDx=0;exitDy=0;strokeWidth=2;fillColor=#dae8fc;strokeColor=#FF0000;" edge="1" parent="1" source="eVUh2sTWQAKDTClY-ghB-6">
          <mxGeometry width="50" height="50" relative="1" as="geometry">
            <mxPoint x="1112" y="-84.66000000000003" as="sourcePoint" />
            <mxPoint x="1114" y="-15.660000000000025" as="targetPoint" />
          </mxGeometry>
        </mxCell>
        <mxCell id="eVUh2sTWQAKDTClY-ghB-8" value="" style="endArrow=classic;html=1;rounded=0;strokeWidth=2;fillColor=#dae8fc;strokeColor=#FF0000;" edge="1" parent="1">
          <mxGeometry width="50" height="50" relative="1" as="geometry">
            <mxPoint x="1114" y="-15.660000000000025" as="sourcePoint" />
            <mxPoint x="1146" y="-175.66000000000003" as="targetPoint" />
          </mxGeometry>
        </mxCell>
        <mxCell id="eVUh2sTWQAKDTClY-ghB-9" value="" style="endArrow=classic;html=1;rounded=0;exitX=1;exitY=0.5;exitDx=0;exitDy=0;strokeWidth=2;fillColor=#dae8fc;strokeColor=#FF0000;" edge="1" parent="1">
          <mxGeometry width="50" height="50" relative="1" as="geometry">
            <mxPoint x="1145" y="-174.66000000000003" as="sourcePoint" />
            <mxPoint x="1190" y="-42.660000000000025" as="targetPoint" />
          </mxGeometry>
        </mxCell>
        <mxCell id="eVUh2sTWQAKDTClY-ghB-10" value="" style="endArrow=classic;html=1;rounded=0;strokeWidth=2;fillColor=#dae8fc;strokeColor=#FF0000;" edge="1" parent="1">
          <mxGeometry width="50" height="50" relative="1" as="geometry">
            <mxPoint x="1190" y="-42.660000000000025" as="sourcePoint" />
            <mxPoint x="1235" y="-166.66000000000003" as="targetPoint" />
          </mxGeometry>
        </mxCell>
        <mxCell id="eVUh2sTWQAKDTClY-ghB-11" value="" style="endArrow=classic;html=1;rounded=0;strokeWidth=2;fillColor=#dae8fc;strokeColor=#FF0000;" edge="1" parent="1">
          <mxGeometry width="50" height="50" relative="1" as="geometry">
            <mxPoint x="1235" y="-166.66000000000003" as="sourcePoint" />
            <mxPoint x="1279" y="-74.66000000000003" as="targetPoint" />
          </mxGeometry>
        </mxCell>
        <mxCell id="eVUh2sTWQAKDTClY-ghB-12" value="" style="endArrow=classic;html=1;rounded=0;strokeWidth=2;fillColor=#dae8fc;strokeColor=#FF0000;" edge="1" parent="1">
          <mxGeometry width="50" height="50" relative="1" as="geometry">
            <mxPoint x="1279" y="-74.66000000000003" as="sourcePoint" />
            <mxPoint x="1310" y="-160.66000000000003" as="targetPoint" />
          </mxGeometry>
        </mxCell>
        <mxCell id="eVUh2sTWQAKDTClY-ghB-13" value="" style="endArrow=classic;html=1;rounded=0;strokeWidth=2;fillColor=#dae8fc;strokeColor=#FF0000;" edge="1" parent="1">
          <mxGeometry width="50" height="50" relative="1" as="geometry">
            <mxPoint x="1310" y="-159.66000000000003" as="sourcePoint" />
            <mxPoint x="1340" y="-96.66000000000003" as="targetPoint" />
          </mxGeometry>
        </mxCell>
        <mxCell id="eVUh2sTWQAKDTClY-ghB-14" value="" style="endArrow=classic;html=1;rounded=0;strokeWidth=2;fillColor=#dae8fc;strokeColor=#FF0000;" edge="1" parent="1">
          <mxGeometry width="50" height="50" relative="1" as="geometry">
            <mxPoint x="1340" y="-96.66000000000003" as="sourcePoint" />
            <mxPoint x="1370" y="-154.66000000000003" as="targetPoint" />
          </mxGeometry>
        </mxCell>
        <mxCell id="eVUh2sTWQAKDTClY-ghB-15" value="" style="endArrow=classic;html=1;rounded=0;strokeWidth=2;fillColor=#dae8fc;strokeColor=#FF0000;" edge="1" parent="1">
          <mxGeometry width="50" height="50" relative="1" as="geometry">
            <mxPoint x="1370" y="-153.66000000000003" as="sourcePoint" />
            <mxPoint x="1386" y="-113.66000000000003" as="targetPoint" />
          </mxGeometry>
        </mxCell>
        <mxCell id="eVUh2sTWQAKDTClY-ghB-16" value="" style="endArrow=classic;html=1;rounded=0;strokeWidth=2;fillColor=#dae8fc;strokeColor=#FF0000;" edge="1" parent="1">
          <mxGeometry width="50" height="50" relative="1" as="geometry">
            <mxPoint x="1386" y="-113.66000000000003" as="sourcePoint" />
            <mxPoint x="1404" y="-150.66000000000003" as="targetPoint" />
          </mxGeometry>
        </mxCell>
        <mxCell id="eVUh2sTWQAKDTClY-ghB-18" value="" style="endArrow=classic;html=1;rounded=0;strokeWidth=2;fillColor=#dae8fc;strokeColor=#FF0000;" edge="1" parent="1">
          <mxGeometry width="50" height="50" relative="1" as="geometry">
            <mxPoint x="1403" y="-150.66000000000003" as="sourcePoint" />
            <mxPoint x="1417" y="-123.66000000000003" as="targetPoint" />
          </mxGeometry>
        </mxCell>
        <mxCell id="eVUh2sTWQAKDTClY-ghB-19" value="" style="endArrow=classic;html=1;rounded=0;strokeWidth=2;fillColor=#dae8fc;strokeColor=#FF0000;" edge="1" parent="1">
          <mxGeometry width="50" height="50" relative="1" as="geometry">
            <mxPoint x="1416" y="-123.66000000000003" as="sourcePoint" />
            <mxPoint x="1428" y="-147.66000000000003" as="targetPoint" />
          </mxGeometry>
        </mxCell>
        <mxCell id="eVUh2sTWQAKDTClY-ghB-20" value="" style="endArrow=none;html=1;rounded=0;endFill=0;strokeWidth=2;fillColor=#dae8fc;strokeColor=#FF0000;" edge="1" parent="1">
          <mxGeometry width="50" height="50" relative="1" as="geometry">
            <mxPoint x="1427" y="-147.66000000000003" as="sourcePoint" />
            <mxPoint x="1436" y="-131.66000000000003" as="targetPoint" />
          </mxGeometry>
        </mxCell>
        <mxCell id="eVUh2sTWQAKDTClY-ghB-21" value="" style="endArrow=none;html=1;rounded=0;endFill=0;strokeWidth=2;fillColor=#dae8fc;strokeColor=#FF0000;" edge="1" parent="1">
          <mxGeometry width="50" height="50" relative="1" as="geometry">
            <mxPoint x="1436" y="-131.66000000000003" as="sourcePoint" />
            <mxPoint x="1444" y="-145.66000000000003" as="targetPoint" />
          </mxGeometry>
        </mxCell>
        <mxCell id="eVUh2sTWQAKDTClY-ghB-22" value="" style="endArrow=none;html=1;rounded=0;endFill=0;strokeWidth=2;fillColor=#dae8fc;strokeColor=#FF0000;" edge="1" parent="1">
          <mxGeometry width="50" height="50" relative="1" as="geometry">
            <mxPoint x="1444" y="-145.66000000000003" as="sourcePoint" />
            <mxPoint x="1450" y="-136.66000000000003" as="targetPoint" />
          </mxGeometry>
        </mxCell>
        <mxCell id="eVUh2sTWQAKDTClY-ghB-23" value="" style="endArrow=none;html=1;rounded=0;endFill=0;strokeWidth=2;fillColor=#dae8fc;strokeColor=#FF0000;" edge="1" parent="1">
          <mxGeometry width="50" height="50" relative="1" as="geometry">
            <mxPoint x="1450" y="-136.66000000000003" as="sourcePoint" />
            <mxPoint x="1456" y="-144.66000000000003" as="targetPoint" />
          </mxGeometry>
        </mxCell>
        <mxCell id="eVUh2sTWQAKDTClY-ghB-24" value="" style="endArrow=none;html=1;rounded=0;endFill=0;strokeWidth=2;fillColor=#dae8fc;strokeColor=#FF0000;" edge="1" parent="1">
          <mxGeometry width="50" height="50" relative="1" as="geometry">
            <mxPoint x="1456" y="-143.66000000000003" as="sourcePoint" />
            <mxPoint x="1461" y="-140.66000000000003" as="targetPoint" />
          </mxGeometry>
        </mxCell>
        <mxCell id="eVUh2sTWQAKDTClY-ghB-25" value="" style="endArrow=none;html=1;rounded=0;endFill=0;strokeWidth=2;fillColor=#dae8fc;strokeColor=#FF0000;" edge="1" parent="1">
          <mxGeometry width="50" height="50" relative="1" as="geometry">
            <mxPoint x="1462" y="-140.66000000000003" as="sourcePoint" />
            <mxPoint x="1465" y="-144.66000000000003" as="targetPoint" />
          </mxGeometry>
        </mxCell>
        <mxCell id="eVUh2sTWQAKDTClY-ghB-26" value="$$\pi=\text{greedy}(V)$$" style="text;html=1;strokeColor=none;fillColor=none;align=center;verticalAlign=middle;whiteSpace=wrap;rounded=0;rotation=-20;fontSize=18;" vertex="1" parent="1">
          <mxGeometry x="1203" y="-52.660000000000025" width="60" height="30" as="geometry" />
        </mxCell>
        <mxCell id="eVUh2sTWQAKDTClY-ghB-27" value="$$V = v^\pi$$" style="text;html=1;strokeColor=none;fillColor=none;align=center;verticalAlign=middle;whiteSpace=wrap;rounded=0;rotation=20;fontSize=18;" vertex="1" parent="1">
          <mxGeometry x="1171" y="-250.66000000000003" width="151" height="30" as="geometry" />
        </mxCell>
        <mxCell id="eVUh2sTWQAKDTClY-ghB-31" value="$$\pi^*, v^*$$" style="text;html=1;strokeColor=none;fillColor=none;align=center;verticalAlign=middle;whiteSpace=wrap;rounded=0;fontSize=18;" vertex="1" parent="1">
          <mxGeometry x="1488" y="-160.66000000000003" width="25" height="30" as="geometry" />
        </mxCell>
        <mxCell id="eVUh2sTWQAKDTClY-ghB-32" value="&lt;font style=&quot;font-size: 18px;&quot;&gt;$$\text{Greedy Policy Improvement}$$&lt;/font&gt;" style="text;html=1;strokeColor=none;fillColor=none;align=center;verticalAlign=middle;whiteSpace=wrap;rounded=0;rotation=-20;" vertex="1" parent="1">
          <mxGeometry x="1216.5" y="-28.660000000000025" width="60" height="30" as="geometry" />
        </mxCell>
        <mxCell id="eVUh2sTWQAKDTClY-ghB-33" value="&lt;font style=&quot;font-size: 18px;&quot;&gt;$$\text{Iterative Policy Evaluation}$$&lt;/font&gt;" style="text;html=1;strokeColor=none;fillColor=none;align=center;verticalAlign=middle;whiteSpace=wrap;rounded=0;rotation=20;" vertex="1" parent="1">
          <mxGeometry x="1130" y="-275.66" width="276" height="30" as="geometry" />
        </mxCell>
        <mxCell id="eVUh2sTWQAKDTClY-ghB-34" value="" style="endArrow=none;html=1;rounded=0;exitX=1.002;exitY=0.901;exitDx=0;exitDy=0;exitPerimeter=0;strokeWidth=2;" edge="1" parent="1">
          <mxGeometry width="50" height="50" relative="1" as="geometry">
            <mxPoint x="1630.24" y="-0.31600000000008777" as="sourcePoint" />
            <mxPoint x="2047" y="-151.26000000000005" as="targetPoint" />
          </mxGeometry>
        </mxCell>
        <mxCell id="eVUh2sTWQAKDTClY-ghB-35" value="" style="endArrow=none;html=1;rounded=0;exitX=1.003;exitY=0.056;exitDx=0;exitDy=0;exitPerimeter=0;strokeWidth=2;" edge="1" parent="1">
          <mxGeometry width="50" height="50" relative="1" as="geometry">
            <mxPoint x="1630.36" y="-290.996" as="sourcePoint" />
            <mxPoint x="2047" y="-151.26000000000005" as="targetPoint" />
          </mxGeometry>
        </mxCell>
        <mxCell id="eVUh2sTWQAKDTClY-ghB-37" value="$$\pi$$" style="text;html=1;strokeColor=none;fillColor=none;align=center;verticalAlign=middle;whiteSpace=wrap;rounded=0;fontSize=18;" vertex="1" parent="1">
          <mxGeometry x="1587" y="-168.26000000000005" width="25" height="30" as="geometry" />
        </mxCell>
        <mxCell id="eVUh2sTWQAKDTClY-ghB-38" value="" style="endArrow=classic;html=1;rounded=0;exitX=1;exitY=0.5;exitDx=0;exitDy=0;strokeWidth=2;fillColor=#dae8fc;strokeColor=#007FFF;" edge="1" parent="1">
          <mxGeometry width="50" height="50" relative="1" as="geometry">
            <mxPoint x="1753" y="-248.66000000000005" as="sourcePoint" />
            <mxPoint x="1838" y="-76.66000000000003" as="targetPoint" />
          </mxGeometry>
        </mxCell>
        <mxCell id="eVUh2sTWQAKDTClY-ghB-39" value="" style="endArrow=classic;html=1;rounded=0;strokeWidth=2;fillColor=#dae8fc;strokeColor=#007FFF;" edge="1" parent="1">
          <mxGeometry width="50" height="50" relative="1" as="geometry">
            <mxPoint x="1691" y="-23.260000000000048" as="sourcePoint" />
            <mxPoint x="1753" y="-248.66000000000003" as="targetPoint" />
          </mxGeometry>
        </mxCell>
        <mxCell id="eVUh2sTWQAKDTClY-ghB-56" value="$$\pi=\text{greedy}(V)$$" style="text;html=1;strokeColor=none;fillColor=none;align=center;verticalAlign=middle;whiteSpace=wrap;rounded=0;rotation=-20;fontSize=18;" vertex="1" parent="1">
          <mxGeometry x="1808.25" y="-72.66000000000003" width="60" height="30" as="geometry" />
        </mxCell>
        <mxCell id="eVUh2sTWQAKDTClY-ghB-57" value="$$V = v^\pi$$" style="text;html=1;strokeColor=none;fillColor=none;align=center;verticalAlign=middle;whiteSpace=wrap;rounded=0;rotation=20;fontSize=18;" vertex="1" parent="1">
          <mxGeometry x="1748" y="-258.26" width="151" height="30" as="geometry" />
        </mxCell>
        <mxCell id="eVUh2sTWQAKDTClY-ghB-58" value="$$\pi^*, v^*$$" style="text;html=1;strokeColor=none;fillColor=none;align=center;verticalAlign=middle;whiteSpace=wrap;rounded=0;fontSize=18;" vertex="1" parent="1">
          <mxGeometry x="2065" y="-168.26000000000005" width="25" height="30" as="geometry" />
        </mxCell>
        <mxCell id="eVUh2sTWQAKDTClY-ghB-59" value="&lt;font style=&quot;font-size: 18px;&quot;&gt;$$\text{Greedy Policy Improvement}$$&lt;/font&gt;" style="text;html=1;strokeColor=none;fillColor=none;align=center;verticalAlign=middle;whiteSpace=wrap;rounded=0;rotation=-20;" vertex="1" parent="1">
          <mxGeometry x="1821.75" y="-48.660000000000025" width="60" height="30" as="geometry" />
        </mxCell>
        <mxCell id="eVUh2sTWQAKDTClY-ghB-60" value="&lt;font style=&quot;font-size: 18px;&quot;&gt;$$\text{Iterative Policy Evaluation}$$&lt;/font&gt;" style="text;html=1;strokeColor=none;fillColor=none;align=center;verticalAlign=middle;whiteSpace=wrap;rounded=0;rotation=20;" vertex="1" parent="1">
          <mxGeometry x="1707" y="-283.26" width="276" height="30" as="geometry" />
        </mxCell>
        <mxCell id="eVUh2sTWQAKDTClY-ghB-61" value="" style="endArrow=classic;html=1;rounded=0;strokeWidth=2;fillColor=#dae8fc;strokeColor=#007FFF;" edge="1" parent="1" source="eVUh2sTWQAKDTClY-ghB-37">
          <mxGeometry width="50" height="50" relative="1" as="geometry">
            <mxPoint x="1622" y="-143.66000000000003" as="sourcePoint" />
            <mxPoint x="1691" y="-23.660000000000025" as="targetPoint" />
          </mxGeometry>
        </mxCell>
        <mxCell id="eVUh2sTWQAKDTClY-ghB-64" value="" style="endArrow=classic;html=1;rounded=0;exitX=1;exitY=0.5;exitDx=0;exitDy=0;strokeWidth=2;fillColor=#dae8fc;strokeColor=#007FFF;" edge="1" parent="1">
          <mxGeometry width="50" height="50" relative="1" as="geometry">
            <mxPoint x="1896" y="-200.66000000000008" as="sourcePoint" />
            <mxPoint x="1942" y="-114.66000000000003" as="targetPoint" />
          </mxGeometry>
        </mxCell>
        <mxCell id="eVUh2sTWQAKDTClY-ghB-65" value="" style="endArrow=classic;html=1;rounded=0;strokeWidth=2;fillColor=#dae8fc;strokeColor=#007FFF;" edge="1" parent="1">
          <mxGeometry width="50" height="50" relative="1" as="geometry">
            <mxPoint x="1838" y="-76.96000000000004" as="sourcePoint" />
            <mxPoint x="1896" y="-200.66000000000003" as="targetPoint" />
          </mxGeometry>
        </mxCell>
        <mxCell id="eVUh2sTWQAKDTClY-ghB-66" value="" style="endArrow=classic;html=1;rounded=0;exitX=1;exitY=0.5;exitDx=0;exitDy=0;strokeWidth=2;fillColor=#dae8fc;strokeColor=#007FFF;" edge="1" parent="1">
          <mxGeometry width="50" height="50" relative="1" as="geometry">
            <mxPoint x="1974" y="-174.66000000000008" as="sourcePoint" />
            <mxPoint x="1995" y="-132.66000000000003" as="targetPoint" />
          </mxGeometry>
        </mxCell>
        <mxCell id="eVUh2sTWQAKDTClY-ghB-67" value="" style="endArrow=classic;html=1;rounded=0;strokeWidth=2;fillColor=#dae8fc;strokeColor=#007FFF;" edge="1" parent="1">
          <mxGeometry width="50" height="50" relative="1" as="geometry">
            <mxPoint x="1942" y="-114.96000000000004" as="sourcePoint" />
            <mxPoint x="1974" y="-174.66000000000003" as="targetPoint" />
          </mxGeometry>
        </mxCell>
        <mxCell id="eVUh2sTWQAKDTClY-ghB-68" value="" style="endArrow=classic;html=1;rounded=0;exitX=1;exitY=0.5;exitDx=0;exitDy=0;strokeWidth=2;fillColor=#dae8fc;strokeColor=#007FFF;" edge="1" parent="1">
          <mxGeometry width="50" height="50" relative="1" as="geometry">
            <mxPoint x="2016" y="-160.66000000000008" as="sourcePoint" />
            <mxPoint x="2041" y="-149.66000000000003" as="targetPoint" />
          </mxGeometry>
        </mxCell>
        <mxCell id="eVUh2sTWQAKDTClY-ghB-69" value="" style="endArrow=classic;html=1;rounded=0;strokeWidth=2;fillColor=#dae8fc;strokeColor=#007FFF;" edge="1" parent="1">
          <mxGeometry width="50" height="50" relative="1" as="geometry">
            <mxPoint x="1995" y="-132.96000000000004" as="sourcePoint" />
            <mxPoint x="2016" y="-160.66000000000003" as="targetPoint" />
          </mxGeometry>
        </mxCell>
        <mxCell id="eVUh2sTWQAKDTClY-ghB-76" style="edgeStyle=orthogonalEdgeStyle;shape=connector;curved=1;rounded=0;orthogonalLoop=1;jettySize=auto;html=1;exitX=1;exitY=0.5;exitDx=0;exitDy=0;entryX=0;entryY=0.5;entryDx=0;entryDy=0;dashed=1;labelBackgroundColor=default;strokeColor=default;strokeWidth=2;fontFamily=Helvetica;fontSize=11;fontColor=default;endArrow=classic;" edge="1" parent="1" source="eVUh2sTWQAKDTClY-ghB-71" target="eVUh2sTWQAKDTClY-ghB-72">
          <mxGeometry relative="1" as="geometry" />
        </mxCell>
        <mxCell id="eVUh2sTWQAKDTClY-ghB-71" value="$$1$$" style="ellipse;whiteSpace=wrap;html=1;aspect=fixed;fillColor=#f5f5f5;fontColor=#333333;strokeColor=#666666;fontSize=25;" vertex="1" parent="1">
          <mxGeometry x="618" y="751" width="80" height="80" as="geometry" />
        </mxCell>
        <mxCell id="eVUh2sTWQAKDTClY-ghB-72" value="$$2$$" style="ellipse;whiteSpace=wrap;html=1;aspect=fixed;fillColor=#f5f5f5;fontColor=#333333;strokeColor=#666666;fontSize=25;" vertex="1" parent="1">
          <mxGeometry x="856.5" y="751" width="80" height="80" as="geometry" />
        </mxCell>
        <mxCell id="eVUh2sTWQAKDTClY-ghB-73" style="edgeStyle=orthogonalEdgeStyle;rounded=0;orthogonalLoop=1;jettySize=auto;html=1;exitX=0.5;exitY=0;exitDx=0;exitDy=0;entryX=0;entryY=0.5;entryDx=0;entryDy=0;curved=1;dashed=1;strokeWidth=2;" edge="1" parent="1" source="eVUh2sTWQAKDTClY-ghB-71" target="eVUh2sTWQAKDTClY-ghB-71">
          <mxGeometry relative="1" as="geometry">
            <Array as="points">
              <mxPoint x="658" y="692" />
              <mxPoint x="545" y="692" />
              <mxPoint x="545" y="791" />
            </Array>
          </mxGeometry>
        </mxCell>
        <mxCell id="eVUh2sTWQAKDTClY-ghB-77" style="edgeStyle=orthogonalEdgeStyle;shape=connector;curved=1;rounded=0;orthogonalLoop=1;jettySize=auto;html=1;exitX=0.5;exitY=0;exitDx=0;exitDy=0;entryX=1;entryY=0.5;entryDx=0;entryDy=0;dashed=1;labelBackgroundColor=default;strokeColor=default;strokeWidth=2;fontFamily=Helvetica;fontSize=11;fontColor=default;endArrow=classic;" edge="1" parent="1" source="eVUh2sTWQAKDTClY-ghB-72" target="eVUh2sTWQAKDTClY-ghB-72">
          <mxGeometry relative="1" as="geometry">
            <Array as="points">
              <mxPoint x="897" y="694" />
              <mxPoint x="1003" y="694" />
              <mxPoint x="1003" y="791" />
            </Array>
          </mxGeometry>
        </mxCell>
        <mxCell id="eVUh2sTWQAKDTClY-ghB-80" value="$$2 \epsilon \gamma$$" style="text;html=1;strokeColor=none;fillColor=none;align=center;verticalAlign=middle;whiteSpace=wrap;rounded=0;fontSize=20;fontFamily=Helvetica;fontColor=#FF0000;" vertex="1" parent="1">
          <mxGeometry x="542" y="659" width="60" height="30" as="geometry" />
        </mxCell>
        <mxCell id="eVUh2sTWQAKDTClY-ghB-81" value="$$0$$" style="text;html=1;strokeColor=none;fillColor=none;align=center;verticalAlign=middle;whiteSpace=wrap;rounded=0;fontSize=20;fontFamily=Helvetica;fontColor=#FF0000;" vertex="1" parent="1">
          <mxGeometry x="742" y="756" width="60" height="30" as="geometry" />
        </mxCell>
        <mxCell id="eVUh2sTWQAKDTClY-ghB-82" value="$$0$$" style="text;html=1;strokeColor=none;fillColor=none;align=center;verticalAlign=middle;whiteSpace=wrap;rounded=0;fontSize=20;fontFamily=Helvetica;fontColor=#FF0000;" vertex="1" parent="1">
          <mxGeometry x="944" y="664" width="60" height="30" as="geometry" />
        </mxCell>
        <mxCell id="eVUh2sTWQAKDTClY-ghB-83" value="$$1$$" style="ellipse;whiteSpace=wrap;html=1;aspect=fixed;fillColor=#f5f5f5;fontColor=#333333;strokeColor=#666666;fontSize=25;" vertex="1" parent="1">
          <mxGeometry x="608" y="1119" width="80" height="80" as="geometry" />
        </mxCell>
        <mxCell id="eVUh2sTWQAKDTClY-ghB-90" style="edgeStyle=orthogonalEdgeStyle;shape=connector;curved=1;rounded=0;orthogonalLoop=1;jettySize=auto;html=1;exitX=0.5;exitY=1;exitDx=0;exitDy=0;entryX=0.5;entryY=1;entryDx=0;entryDy=0;dashed=1;labelBackgroundColor=default;strokeColor=default;strokeWidth=2;fontFamily=Helvetica;fontSize=11;fontColor=default;endArrow=classic;" edge="1" parent="1" source="eVUh2sTWQAKDTClY-ghB-84" target="eVUh2sTWQAKDTClY-ghB-83">
          <mxGeometry relative="1" as="geometry">
            <Array as="points">
              <mxPoint x="802" y="1241" />
              <mxPoint x="648" y="1241" />
            </Array>
          </mxGeometry>
        </mxCell>
        <mxCell id="eVUh2sTWQAKDTClY-ghB-97" style="edgeStyle=orthogonalEdgeStyle;shape=connector;curved=1;rounded=0;orthogonalLoop=1;jettySize=auto;html=1;exitX=0.5;exitY=0;exitDx=0;exitDy=0;entryX=0.5;entryY=0;entryDx=0;entryDy=0;dashed=1;labelBackgroundColor=default;strokeColor=default;strokeWidth=2;fontFamily=Helvetica;fontSize=11;fontColor=default;endArrow=classic;" edge="1" parent="1" source="eVUh2sTWQAKDTClY-ghB-84" target="eVUh2sTWQAKDTClY-ghB-85">
          <mxGeometry relative="1" as="geometry">
            <Array as="points">
              <mxPoint x="802" y="1083" />
              <mxPoint x="956" y="1083" />
            </Array>
          </mxGeometry>
        </mxCell>
        <mxCell id="eVUh2sTWQAKDTClY-ghB-84" value="$$2$$" style="ellipse;whiteSpace=wrap;html=1;aspect=fixed;fillColor=#f5f5f5;fontColor=#333333;strokeColor=#666666;fontSize=25;" vertex="1" parent="1">
          <mxGeometry x="762" y="1119" width="80" height="80" as="geometry" />
        </mxCell>
        <mxCell id="eVUh2sTWQAKDTClY-ghB-93" style="edgeStyle=orthogonalEdgeStyle;shape=connector;curved=1;rounded=0;orthogonalLoop=1;jettySize=auto;html=1;exitX=0.5;exitY=1;exitDx=0;exitDy=0;entryX=0.5;entryY=1;entryDx=0;entryDy=0;dashed=1;labelBackgroundColor=default;strokeColor=default;strokeWidth=2;fontFamily=Helvetica;fontSize=11;fontColor=default;endArrow=classic;" edge="1" parent="1" source="eVUh2sTWQAKDTClY-ghB-85" target="eVUh2sTWQAKDTClY-ghB-84">
          <mxGeometry relative="1" as="geometry">
            <Array as="points">
              <mxPoint x="956" y="1239" />
              <mxPoint x="802" y="1239" />
            </Array>
          </mxGeometry>
        </mxCell>
        <mxCell id="eVUh2sTWQAKDTClY-ghB-98" style="edgeStyle=orthogonalEdgeStyle;shape=connector;curved=1;rounded=0;orthogonalLoop=1;jettySize=auto;html=1;exitX=0.5;exitY=0;exitDx=0;exitDy=0;entryX=0.5;entryY=0;entryDx=0;entryDy=0;dashed=1;labelBackgroundColor=default;strokeColor=default;strokeWidth=2;fontFamily=Helvetica;fontSize=11;fontColor=default;endArrow=classic;" edge="1" parent="1" source="eVUh2sTWQAKDTClY-ghB-85" target="eVUh2sTWQAKDTClY-ghB-91">
          <mxGeometry relative="1" as="geometry">
            <Array as="points">
              <mxPoint x="956" y="1084" />
              <mxPoint x="1110" y="1084" />
            </Array>
          </mxGeometry>
        </mxCell>
        <mxCell id="eVUh2sTWQAKDTClY-ghB-85" value="$$3$$" style="ellipse;whiteSpace=wrap;html=1;aspect=fixed;fillColor=#f5f5f5;fontColor=#333333;strokeColor=#666666;fontSize=25;" vertex="1" parent="1">
          <mxGeometry x="916" y="1119" width="80" height="80" as="geometry" />
        </mxCell>
        <mxCell id="eVUh2sTWQAKDTClY-ghB-95" style="edgeStyle=orthogonalEdgeStyle;shape=connector;curved=1;rounded=0;orthogonalLoop=1;jettySize=auto;html=1;exitX=0.5;exitY=1;exitDx=0;exitDy=0;entryX=0.5;entryY=1;entryDx=0;entryDy=0;dashed=1;labelBackgroundColor=default;strokeColor=default;strokeWidth=2;fontFamily=Helvetica;fontSize=11;fontColor=default;endArrow=classic;" edge="1" parent="1" source="eVUh2sTWQAKDTClY-ghB-86" target="eVUh2sTWQAKDTClY-ghB-91">
          <mxGeometry relative="1" as="geometry">
            <Array as="points">
              <mxPoint x="1264" y="1243" />
              <mxPoint x="1110" y="1243" />
            </Array>
          </mxGeometry>
        </mxCell>
        <mxCell id="eVUh2sTWQAKDTClY-ghB-100" style="edgeStyle=orthogonalEdgeStyle;shape=connector;curved=1;rounded=0;orthogonalLoop=1;jettySize=auto;html=1;exitX=0.5;exitY=0;exitDx=0;exitDy=0;entryX=0.5;entryY=0;entryDx=0;entryDy=0;dashed=1;labelBackgroundColor=default;strokeColor=default;strokeWidth=2;fontFamily=Helvetica;fontSize=11;fontColor=default;endArrow=classic;" edge="1" parent="1" source="eVUh2sTWQAKDTClY-ghB-86" target="eVUh2sTWQAKDTClY-ghB-87">
          <mxGeometry relative="1" as="geometry">
            <Array as="points">
              <mxPoint x="1264" y="1089" />
              <mxPoint x="1418" y="1089" />
            </Array>
          </mxGeometry>
        </mxCell>
        <mxCell id="eVUh2sTWQAKDTClY-ghB-86" value="$$n-2$$" style="ellipse;whiteSpace=wrap;html=1;aspect=fixed;fillColor=#f5f5f5;fontColor=#333333;strokeColor=#666666;fontSize=23;" vertex="1" parent="1">
          <mxGeometry x="1224" y="1119" width="80" height="80" as="geometry" />
        </mxCell>
        <mxCell id="eVUh2sTWQAKDTClY-ghB-96" style="edgeStyle=orthogonalEdgeStyle;shape=connector;curved=1;rounded=0;orthogonalLoop=1;jettySize=auto;html=1;exitX=0.5;exitY=1;exitDx=0;exitDy=0;dashed=1;labelBackgroundColor=default;strokeColor=default;strokeWidth=2;fontFamily=Helvetica;fontSize=11;fontColor=default;endArrow=classic;entryX=0.5;entryY=1;entryDx=0;entryDy=0;" edge="1" parent="1" source="eVUh2sTWQAKDTClY-ghB-87" target="eVUh2sTWQAKDTClY-ghB-86">
          <mxGeometry relative="1" as="geometry">
            <mxPoint x="1346.9090909090905" y="1274.9999999999998" as="targetPoint" />
            <Array as="points">
              <mxPoint x="1418" y="1240" />
              <mxPoint x="1264" y="1240" />
            </Array>
          </mxGeometry>
        </mxCell>
        <mxCell id="eVUh2sTWQAKDTClY-ghB-101" style="edgeStyle=orthogonalEdgeStyle;shape=connector;curved=1;rounded=0;orthogonalLoop=1;jettySize=auto;html=1;exitX=0.5;exitY=0;exitDx=0;exitDy=0;entryX=0.5;entryY=0;entryDx=0;entryDy=0;dashed=1;labelBackgroundColor=default;strokeColor=default;strokeWidth=2;fontFamily=Helvetica;fontSize=11;fontColor=default;endArrow=classic;" edge="1" parent="1" source="eVUh2sTWQAKDTClY-ghB-87" target="eVUh2sTWQAKDTClY-ghB-88">
          <mxGeometry relative="1" as="geometry">
            <Array as="points">
              <mxPoint x="1418" y="1089" />
              <mxPoint x="1572" y="1089" />
            </Array>
          </mxGeometry>
        </mxCell>
        <mxCell id="eVUh2sTWQAKDTClY-ghB-87" value="$$n-1$$" style="ellipse;whiteSpace=wrap;html=1;aspect=fixed;fillColor=#f5f5f5;fontColor=#333333;strokeColor=#666666;fontSize=23;" vertex="1" parent="1">
          <mxGeometry x="1378" y="1119" width="80" height="80" as="geometry" />
        </mxCell>
        <mxCell id="eVUh2sTWQAKDTClY-ghB-88" value="$$n$$" style="ellipse;whiteSpace=wrap;html=1;aspect=fixed;fillColor=#f5f5f5;fontColor=#333333;strokeColor=#666666;fontSize=25;" vertex="1" parent="1">
          <mxGeometry x="1532" y="1119" width="80" height="80" as="geometry" />
        </mxCell>
        <mxCell id="eVUh2sTWQAKDTClY-ghB-89" style="edgeStyle=orthogonalEdgeStyle;shape=connector;curved=1;rounded=0;orthogonalLoop=1;jettySize=auto;html=1;exitX=0.5;exitY=0;exitDx=0;exitDy=0;entryX=0;entryY=0.5;entryDx=0;entryDy=0;dashed=1;labelBackgroundColor=default;strokeColor=default;strokeWidth=2;fontFamily=Helvetica;fontSize=11;fontColor=default;endArrow=classic;" edge="1" parent="1" source="eVUh2sTWQAKDTClY-ghB-83" target="eVUh2sTWQAKDTClY-ghB-83">
          <mxGeometry relative="1" as="geometry">
            <Array as="points">
              <mxPoint x="648" y="1071" />
              <mxPoint x="550" y="1071" />
              <mxPoint x="550" y="1159" />
            </Array>
          </mxGeometry>
        </mxCell>
        <mxCell id="eVUh2sTWQAKDTClY-ghB-94" style="edgeStyle=orthogonalEdgeStyle;shape=connector;curved=1;rounded=0;orthogonalLoop=1;jettySize=auto;html=1;exitX=0.5;exitY=1;exitDx=0;exitDy=0;entryX=0.5;entryY=1;entryDx=0;entryDy=0;dashed=1;labelBackgroundColor=default;strokeColor=default;strokeWidth=2;fontFamily=Helvetica;fontSize=11;fontColor=default;endArrow=classic;" edge="1" parent="1" source="eVUh2sTWQAKDTClY-ghB-91" target="eVUh2sTWQAKDTClY-ghB-85">
          <mxGeometry relative="1" as="geometry">
            <Array as="points">
              <mxPoint x="1110" y="1242" />
              <mxPoint x="956" y="1242" />
            </Array>
          </mxGeometry>
        </mxCell>
        <mxCell id="eVUh2sTWQAKDTClY-ghB-99" style="edgeStyle=orthogonalEdgeStyle;shape=connector;curved=1;rounded=0;orthogonalLoop=1;jettySize=auto;html=1;exitX=0.5;exitY=0;exitDx=0;exitDy=0;entryX=0.5;entryY=0;entryDx=0;entryDy=0;dashed=1;labelBackgroundColor=default;strokeColor=default;strokeWidth=2;fontFamily=Helvetica;fontSize=11;fontColor=default;endArrow=classic;" edge="1" parent="1" source="eVUh2sTWQAKDTClY-ghB-91" target="eVUh2sTWQAKDTClY-ghB-86">
          <mxGeometry relative="1" as="geometry">
            <Array as="points">
              <mxPoint x="1110" y="1087" />
              <mxPoint x="1264" y="1087" />
            </Array>
          </mxGeometry>
        </mxCell>
        <mxCell id="eVUh2sTWQAKDTClY-ghB-91" value="$$...$$" style="ellipse;whiteSpace=wrap;html=1;aspect=fixed;fontSize=25;strokeColor=none;" vertex="1" parent="1">
          <mxGeometry x="1070" y="1119" width="80" height="80" as="geometry" />
        </mxCell>
        <mxCell id="eVUh2sTWQAKDTClY-ghB-92" style="edgeStyle=orthogonalEdgeStyle;shape=connector;curved=1;rounded=0;orthogonalLoop=1;jettySize=auto;html=1;exitX=0.5;exitY=1;exitDx=0;exitDy=0;entryX=1;entryY=0.5;entryDx=0;entryDy=0;dashed=1;labelBackgroundColor=default;strokeColor=default;strokeWidth=2;fontFamily=Helvetica;fontSize=11;fontColor=default;endArrow=classic;" edge="1" parent="1" source="eVUh2sTWQAKDTClY-ghB-88" target="eVUh2sTWQAKDTClY-ghB-88">
          <mxGeometry relative="1" as="geometry">
            <Array as="points">
              <mxPoint x="1572" y="1237" />
              <mxPoint x="1651" y="1237" />
              <mxPoint x="1651" y="1159" />
            </Array>
          </mxGeometry>
        </mxCell>
        <mxCell id="eVUh2sTWQAKDTClY-ghB-102" value="$$-2$$" style="text;html=1;strokeColor=none;fillColor=none;align=center;verticalAlign=middle;whiteSpace=wrap;rounded=0;fontSize=20;fontFamily=Helvetica;fontColor=#000000;" vertex="1" parent="1">
          <mxGeometry x="849" y="1053" width="60" height="30" as="geometry" />
        </mxCell>
        <mxCell id="eVUh2sTWQAKDTClY-ghB-103" value="$$-2$$" style="text;html=1;strokeColor=none;fillColor=none;align=center;verticalAlign=middle;whiteSpace=wrap;rounded=0;fontSize=20;fontFamily=Helvetica;fontColor=#000000;" vertex="1" parent="1">
          <mxGeometry x="999" y="1053" width="60" height="30" as="geometry" />
        </mxCell>
        <mxCell id="eVUh2sTWQAKDTClY-ghB-104" value="$$-2$$" style="text;html=1;strokeColor=none;fillColor=none;align=center;verticalAlign=middle;whiteSpace=wrap;rounded=0;fontSize=20;fontFamily=Helvetica;fontColor=#000000;" vertex="1" parent="1">
          <mxGeometry x="1157" y="1053" width="60" height="30" as="geometry" />
        </mxCell>
        <mxCell id="eVUh2sTWQAKDTClY-ghB-105" value="$$-2$$" style="text;html=1;strokeColor=none;fillColor=none;align=center;verticalAlign=middle;whiteSpace=wrap;rounded=0;fontSize=20;fontFamily=Helvetica;fontColor=#000000;" vertex="1" parent="1">
          <mxGeometry x="1308" y="1053" width="60" height="30" as="geometry" />
        </mxCell>
        <mxCell id="eVUh2sTWQAKDTClY-ghB-106" value="$$2n$$" style="text;html=1;strokeColor=none;fillColor=none;align=center;verticalAlign=middle;whiteSpace=wrap;rounded=0;fontSize=20;fontFamily=Helvetica;fontColor=#000000;" vertex="1" parent="1">
          <mxGeometry x="1468" y="1053" width="60" height="30" as="geometry" />
        </mxCell>
        <mxCell id="eVUh2sTWQAKDTClY-ghB-107" value="$$-1$$" style="text;html=1;strokeColor=none;fillColor=none;align=center;verticalAlign=middle;whiteSpace=wrap;rounded=0;fontSize=20;fontFamily=Helvetica;fontColor=#000000;" vertex="1" parent="1">
          <mxGeometry x="689.5" y="1247" width="60" height="30" as="geometry" />
        </mxCell>
        <mxCell id="eVUh2sTWQAKDTClY-ghB-108" value="$$-1$$" style="text;html=1;strokeColor=none;fillColor=none;align=center;verticalAlign=middle;whiteSpace=wrap;rounded=0;fontSize=20;fontFamily=Helvetica;fontColor=#000000;" vertex="1" parent="1">
          <mxGeometry x="839.5" y="1247" width="60" height="30" as="geometry" />
        </mxCell>
        <mxCell id="eVUh2sTWQAKDTClY-ghB-109" value="$$-1$$" style="text;html=1;strokeColor=none;fillColor=none;align=center;verticalAlign=middle;whiteSpace=wrap;rounded=0;fontSize=20;fontFamily=Helvetica;fontColor=#000000;" vertex="1" parent="1">
          <mxGeometry x="997.5" y="1247" width="60" height="30" as="geometry" />
        </mxCell>
        <mxCell id="eVUh2sTWQAKDTClY-ghB-110" value="$$-1$$" style="text;html=1;strokeColor=none;fillColor=none;align=center;verticalAlign=middle;whiteSpace=wrap;rounded=0;fontSize=20;fontFamily=Helvetica;fontColor=#000000;" vertex="1" parent="1">
          <mxGeometry x="1148.5" y="1247" width="60" height="30" as="geometry" />
        </mxCell>
        <mxCell id="eVUh2sTWQAKDTClY-ghB-111" value="$$-1$$" style="text;html=1;strokeColor=none;fillColor=none;align=center;verticalAlign=middle;whiteSpace=wrap;rounded=0;fontSize=20;fontFamily=Helvetica;fontColor=#000000;" vertex="1" parent="1">
          <mxGeometry x="1308.5" y="1247" width="60" height="30" as="geometry" />
        </mxCell>
        <mxCell id="eVUh2sTWQAKDTClY-ghB-112" value="$$0$$" style="text;html=1;strokeColor=none;fillColor=none;align=center;verticalAlign=middle;whiteSpace=wrap;rounded=0;fontSize=20;fontFamily=Helvetica;fontColor=#000000;" vertex="1" parent="1">
          <mxGeometry x="510" y="1062" width="60" height="30" as="geometry" />
        </mxCell>
        <mxCell id="eVUh2sTWQAKDTClY-ghB-113" value="$$0$$" style="text;html=1;strokeColor=none;fillColor=none;align=center;verticalAlign=middle;whiteSpace=wrap;rounded=0;fontSize=20;fontFamily=Helvetica;fontColor=#000000;" vertex="1" parent="1">
          <mxGeometry x="1633" y="1205" width="60" height="30" as="geometry" />
        </mxCell>
        <mxCell id="eVUh2sTWQAKDTClY-ghB-114" value="$$0, 0$$" style="text;html=1;strokeColor=none;fillColor=none;align=center;verticalAlign=middle;whiteSpace=wrap;rounded=0;fontSize=26;fontFamily=Helvetica;fontColor=#000000;" vertex="1" parent="1">
          <mxGeometry x="876.5" y="1502" width="60" height="30" as="geometry" />
        </mxCell>
        <mxCell id="eVUh2sTWQAKDTClY-ghB-131" style="edgeStyle=orthogonalEdgeStyle;shape=connector;curved=1;rounded=0;orthogonalLoop=1;jettySize=auto;html=1;exitX=0.5;exitY=1;exitDx=0;exitDy=0;entryX=0.5;entryY=0;entryDx=0;entryDy=0;dashed=1;labelBackgroundColor=default;strokeColor=default;strokeWidth=2;fontFamily=Helvetica;fontSize=11;fontColor=default;endArrow=classic;" edge="1" parent="1" source="eVUh2sTWQAKDTClY-ghB-115" target="eVUh2sTWQAKDTClY-ghB-119">
          <mxGeometry relative="1" as="geometry" />
        </mxCell>
        <mxCell id="eVUh2sTWQAKDTClY-ghB-115" value="$$0, 1$$" style="text;html=1;strokeColor=none;fillColor=none;align=center;verticalAlign=middle;whiteSpace=wrap;rounded=0;fontSize=26;fontFamily=Helvetica;fontColor=#000000;" vertex="1" parent="1">
          <mxGeometry x="1020" y="1502" width="60" height="30" as="geometry" />
        </mxCell>
        <mxCell id="eVUh2sTWQAKDTClY-ghB-136" style="edgeStyle=orthogonalEdgeStyle;shape=connector;curved=1;rounded=0;orthogonalLoop=1;jettySize=auto;html=1;exitX=0.5;exitY=1;exitDx=0;exitDy=0;entryX=0.5;entryY=0;entryDx=0;entryDy=0;dashed=1;labelBackgroundColor=default;strokeColor=default;strokeWidth=2;fontFamily=Helvetica;fontSize=11;fontColor=default;endArrow=classic;" edge="1" parent="1" source="eVUh2sTWQAKDTClY-ghB-116" target="eVUh2sTWQAKDTClY-ghB-120">
          <mxGeometry relative="1" as="geometry" />
        </mxCell>
        <mxCell id="eVUh2sTWQAKDTClY-ghB-116" value="$$0, 2$$" style="text;html=1;strokeColor=none;fillColor=none;align=center;verticalAlign=middle;whiteSpace=wrap;rounded=0;fontSize=26;fontFamily=Helvetica;fontColor=#000000;" vertex="1" parent="1">
          <mxGeometry x="1164" y="1502" width="60" height="30" as="geometry" />
        </mxCell>
        <mxCell id="eVUh2sTWQAKDTClY-ghB-155" style="edgeStyle=orthogonalEdgeStyle;shape=connector;curved=1;rounded=0;orthogonalLoop=1;jettySize=auto;html=1;exitX=0.5;exitY=1;exitDx=0;exitDy=0;entryX=0.5;entryY=0;entryDx=0;entryDy=0;dashed=1;labelBackgroundColor=default;strokeColor=default;strokeWidth=2;fontFamily=Helvetica;fontSize=11;fontColor=default;endArrow=classic;" edge="1" parent="1" source="eVUh2sTWQAKDTClY-ghB-117" target="eVUh2sTWQAKDTClY-ghB-121">
          <mxGeometry relative="1" as="geometry" />
        </mxCell>
        <mxCell id="eVUh2sTWQAKDTClY-ghB-117" value="$$0, 3$$" style="text;html=1;strokeColor=none;fillColor=none;align=center;verticalAlign=middle;whiteSpace=wrap;rounded=0;fontSize=26;fontFamily=Helvetica;fontColor=#000000;" vertex="1" parent="1">
          <mxGeometry x="1308" y="1502" width="60" height="30" as="geometry" />
        </mxCell>
        <mxCell id="eVUh2sTWQAKDTClY-ghB-132" style="edgeStyle=orthogonalEdgeStyle;shape=connector;curved=1;rounded=0;orthogonalLoop=1;jettySize=auto;html=1;exitX=1;exitY=0.5;exitDx=0;exitDy=0;entryX=0;entryY=0.5;entryDx=0;entryDy=0;dashed=1;labelBackgroundColor=default;strokeColor=default;strokeWidth=2;fontFamily=Helvetica;fontSize=11;fontColor=default;endArrow=classic;" edge="1" parent="1" source="eVUh2sTWQAKDTClY-ghB-118" target="eVUh2sTWQAKDTClY-ghB-119">
          <mxGeometry relative="1" as="geometry" />
        </mxCell>
        <mxCell id="eVUh2sTWQAKDTClY-ghB-118" value="$$1, 0$$" style="text;html=1;strokeColor=none;fillColor=none;align=center;verticalAlign=middle;whiteSpace=wrap;rounded=0;fontSize=26;fontFamily=Helvetica;fontColor=#000000;" vertex="1" parent="1">
          <mxGeometry x="876.5" y="1642" width="60" height="30" as="geometry" />
        </mxCell>
        <mxCell id="eVUh2sTWQAKDTClY-ghB-134" style="edgeStyle=orthogonalEdgeStyle;shape=connector;curved=1;rounded=0;orthogonalLoop=1;jettySize=auto;html=1;exitX=0.5;exitY=1;exitDx=0;exitDy=0;entryX=0.5;entryY=0;entryDx=0;entryDy=0;dashed=1;labelBackgroundColor=default;strokeColor=default;strokeWidth=2;fontFamily=Helvetica;fontSize=11;fontColor=default;endArrow=classic;" edge="1" parent="1" source="eVUh2sTWQAKDTClY-ghB-119" target="eVUh2sTWQAKDTClY-ghB-123">
          <mxGeometry relative="1" as="geometry" />
        </mxCell>
        <mxCell id="eVUh2sTWQAKDTClY-ghB-135" style="edgeStyle=orthogonalEdgeStyle;shape=connector;curved=1;rounded=0;orthogonalLoop=1;jettySize=auto;html=1;exitX=1;exitY=0.5;exitDx=0;exitDy=0;entryX=0;entryY=0.5;entryDx=0;entryDy=0;dashed=1;labelBackgroundColor=default;strokeColor=default;strokeWidth=2;fontFamily=Helvetica;fontSize=11;fontColor=default;endArrow=classic;" edge="1" parent="1" source="eVUh2sTWQAKDTClY-ghB-119" target="eVUh2sTWQAKDTClY-ghB-120">
          <mxGeometry relative="1" as="geometry" />
        </mxCell>
        <mxCell id="eVUh2sTWQAKDTClY-ghB-119" value="$$1, 1$$" style="text;html=1;strokeColor=none;fillColor=none;align=center;verticalAlign=middle;whiteSpace=wrap;rounded=0;fontSize=26;fontFamily=Helvetica;fontColor=#000000;" vertex="1" parent="1">
          <mxGeometry x="1020" y="1642" width="60" height="30" as="geometry" />
        </mxCell>
        <mxCell id="eVUh2sTWQAKDTClY-ghB-138" style="edgeStyle=orthogonalEdgeStyle;shape=connector;curved=1;rounded=0;orthogonalLoop=1;jettySize=auto;html=1;exitX=0.5;exitY=1;exitDx=0;exitDy=0;entryX=0.5;entryY=0;entryDx=0;entryDy=0;dashed=1;labelBackgroundColor=default;strokeColor=default;strokeWidth=2;fontFamily=Helvetica;fontSize=11;fontColor=default;endArrow=classic;" edge="1" parent="1" source="eVUh2sTWQAKDTClY-ghB-120" target="eVUh2sTWQAKDTClY-ghB-124">
          <mxGeometry relative="1" as="geometry" />
        </mxCell>
        <mxCell id="eVUh2sTWQAKDTClY-ghB-142" style="edgeStyle=orthogonalEdgeStyle;shape=connector;curved=1;rounded=0;orthogonalLoop=1;jettySize=auto;html=1;exitX=1;exitY=0.5;exitDx=0;exitDy=0;entryX=0;entryY=0.5;entryDx=0;entryDy=0;dashed=1;labelBackgroundColor=default;strokeColor=default;strokeWidth=2;fontFamily=Helvetica;fontSize=11;fontColor=default;endArrow=classic;" edge="1" parent="1" source="eVUh2sTWQAKDTClY-ghB-120" target="eVUh2sTWQAKDTClY-ghB-121">
          <mxGeometry relative="1" as="geometry" />
        </mxCell>
        <mxCell id="eVUh2sTWQAKDTClY-ghB-120" value="$$1, 2$$" style="text;html=1;strokeColor=none;fillColor=none;align=center;verticalAlign=middle;whiteSpace=wrap;rounded=0;fontSize=26;fontFamily=Helvetica;fontColor=#000000;" vertex="1" parent="1">
          <mxGeometry x="1164" y="1642" width="60" height="30" as="geometry" />
        </mxCell>
        <mxCell id="eVUh2sTWQAKDTClY-ghB-145" style="edgeStyle=orthogonalEdgeStyle;shape=connector;curved=1;rounded=0;orthogonalLoop=1;jettySize=auto;html=1;exitX=1;exitY=0.5;exitDx=0;exitDy=0;dashed=1;labelBackgroundColor=default;strokeColor=default;strokeWidth=2;fontFamily=Helvetica;fontSize=11;fontColor=default;endArrow=classic;" edge="1" parent="1" source="eVUh2sTWQAKDTClY-ghB-121">
          <mxGeometry relative="1" as="geometry">
            <mxPoint x="1405.6315789473688" y="1656.5789473684213" as="targetPoint" />
          </mxGeometry>
        </mxCell>
        <mxCell id="eVUh2sTWQAKDTClY-ghB-156" style="edgeStyle=orthogonalEdgeStyle;shape=connector;curved=1;rounded=0;orthogonalLoop=1;jettySize=auto;html=1;exitX=0.5;exitY=1;exitDx=0;exitDy=0;entryX=0.5;entryY=0;entryDx=0;entryDy=0;dashed=1;labelBackgroundColor=default;strokeColor=default;strokeWidth=2;fontFamily=Helvetica;fontSize=11;fontColor=default;endArrow=classic;" edge="1" parent="1" source="eVUh2sTWQAKDTClY-ghB-121" target="eVUh2sTWQAKDTClY-ghB-125">
          <mxGeometry relative="1" as="geometry" />
        </mxCell>
        <mxCell id="eVUh2sTWQAKDTClY-ghB-121" value="$$1, 3$$" style="text;html=1;strokeColor=none;fillColor=none;align=center;verticalAlign=middle;whiteSpace=wrap;rounded=0;fontSize=26;fontFamily=Helvetica;fontColor=#000000;" vertex="1" parent="1">
          <mxGeometry x="1308" y="1642" width="60" height="30" as="geometry" />
        </mxCell>
        <mxCell id="eVUh2sTWQAKDTClY-ghB-133" style="edgeStyle=orthogonalEdgeStyle;shape=connector;curved=1;rounded=0;orthogonalLoop=1;jettySize=auto;html=1;exitX=1;exitY=0.5;exitDx=0;exitDy=0;entryX=0;entryY=0.5;entryDx=0;entryDy=0;dashed=1;labelBackgroundColor=default;strokeColor=default;strokeWidth=2;fontFamily=Helvetica;fontSize=11;fontColor=default;endArrow=classic;" edge="1" parent="1" source="eVUh2sTWQAKDTClY-ghB-122" target="eVUh2sTWQAKDTClY-ghB-123">
          <mxGeometry relative="1" as="geometry" />
        </mxCell>
        <mxCell id="eVUh2sTWQAKDTClY-ghB-122" value="$$2, 0$$" style="text;html=1;strokeColor=none;fillColor=none;align=center;verticalAlign=middle;whiteSpace=wrap;rounded=0;fontSize=26;fontFamily=Helvetica;fontColor=#000000;" vertex="1" parent="1">
          <mxGeometry x="876.5" y="1774" width="60" height="30" as="geometry" />
        </mxCell>
        <mxCell id="eVUh2sTWQAKDTClY-ghB-137" style="edgeStyle=orthogonalEdgeStyle;shape=connector;curved=1;rounded=0;orthogonalLoop=1;jettySize=auto;html=1;exitX=1;exitY=0.5;exitDx=0;exitDy=0;entryX=0;entryY=0.5;entryDx=0;entryDy=0;dashed=1;labelBackgroundColor=default;strokeColor=default;strokeWidth=2;fontFamily=Helvetica;fontSize=11;fontColor=default;endArrow=classic;" edge="1" parent="1" source="eVUh2sTWQAKDTClY-ghB-123" target="eVUh2sTWQAKDTClY-ghB-124">
          <mxGeometry relative="1" as="geometry" />
        </mxCell>
        <mxCell id="eVUh2sTWQAKDTClY-ghB-139" style="edgeStyle=orthogonalEdgeStyle;shape=connector;curved=1;rounded=0;orthogonalLoop=1;jettySize=auto;html=1;exitX=0.5;exitY=1;exitDx=0;exitDy=0;entryX=0.5;entryY=0;entryDx=0;entryDy=0;dashed=1;labelBackgroundColor=default;strokeColor=default;strokeWidth=2;fontFamily=Helvetica;fontSize=11;fontColor=default;endArrow=classic;" edge="1" parent="1" source="eVUh2sTWQAKDTClY-ghB-123" target="eVUh2sTWQAKDTClY-ghB-127">
          <mxGeometry relative="1" as="geometry" />
        </mxCell>
        <mxCell id="eVUh2sTWQAKDTClY-ghB-123" value="$$2, 1$$" style="text;html=1;strokeColor=none;fillColor=none;align=center;verticalAlign=middle;whiteSpace=wrap;rounded=0;fontSize=26;fontFamily=Helvetica;fontColor=#000000;" vertex="1" parent="1">
          <mxGeometry x="1020" y="1774" width="60" height="30" as="geometry" />
        </mxCell>
        <mxCell id="eVUh2sTWQAKDTClY-ghB-140" style="edgeStyle=orthogonalEdgeStyle;shape=connector;curved=1;rounded=0;orthogonalLoop=1;jettySize=auto;html=1;exitX=0.5;exitY=1;exitDx=0;exitDy=0;entryX=0.5;entryY=0;entryDx=0;entryDy=0;dashed=1;labelBackgroundColor=default;strokeColor=default;strokeWidth=2;fontFamily=Helvetica;fontSize=11;fontColor=default;endArrow=classic;" edge="1" parent="1" source="eVUh2sTWQAKDTClY-ghB-124" target="eVUh2sTWQAKDTClY-ghB-128">
          <mxGeometry relative="1" as="geometry" />
        </mxCell>
        <mxCell id="eVUh2sTWQAKDTClY-ghB-141" style="edgeStyle=orthogonalEdgeStyle;shape=connector;curved=1;rounded=0;orthogonalLoop=1;jettySize=auto;html=1;exitX=1;exitY=0.5;exitDx=0;exitDy=0;entryX=0;entryY=0.5;entryDx=0;entryDy=0;dashed=1;labelBackgroundColor=default;strokeColor=default;strokeWidth=2;fontFamily=Helvetica;fontSize=11;fontColor=default;endArrow=classic;" edge="1" parent="1" source="eVUh2sTWQAKDTClY-ghB-124" target="eVUh2sTWQAKDTClY-ghB-125">
          <mxGeometry relative="1" as="geometry" />
        </mxCell>
        <mxCell id="eVUh2sTWQAKDTClY-ghB-124" value="$$2, 2$$" style="text;html=1;strokeColor=none;fillColor=none;align=center;verticalAlign=middle;whiteSpace=wrap;rounded=0;fontSize=26;fontFamily=Helvetica;fontColor=#000000;" vertex="1" parent="1">
          <mxGeometry x="1164" y="1774" width="60" height="30" as="geometry" />
        </mxCell>
        <mxCell id="eVUh2sTWQAKDTClY-ghB-146" style="edgeStyle=orthogonalEdgeStyle;shape=connector;curved=1;rounded=0;orthogonalLoop=1;jettySize=auto;html=1;exitX=1;exitY=0.5;exitDx=0;exitDy=0;dashed=1;labelBackgroundColor=default;strokeColor=default;strokeWidth=2;fontFamily=Helvetica;fontSize=11;fontColor=default;endArrow=classic;" edge="1" parent="1" source="eVUh2sTWQAKDTClY-ghB-125">
          <mxGeometry relative="1" as="geometry">
            <mxPoint x="1414.0526315789475" y="1788.6842105263158" as="targetPoint" />
          </mxGeometry>
        </mxCell>
        <mxCell id="eVUh2sTWQAKDTClY-ghB-150" style="edgeStyle=orthogonalEdgeStyle;shape=connector;curved=1;rounded=0;orthogonalLoop=1;jettySize=auto;html=1;exitX=0.5;exitY=1;exitDx=0;exitDy=0;entryX=0.5;entryY=0;entryDx=0;entryDy=0;dashed=1;labelBackgroundColor=default;strokeColor=default;strokeWidth=2;fontFamily=Helvetica;fontSize=11;fontColor=default;endArrow=classic;" edge="1" parent="1" source="eVUh2sTWQAKDTClY-ghB-125" target="eVUh2sTWQAKDTClY-ghB-129">
          <mxGeometry relative="1" as="geometry" />
        </mxCell>
        <mxCell id="eVUh2sTWQAKDTClY-ghB-125" value="$$2, 3$$" style="text;html=1;strokeColor=none;fillColor=none;align=center;verticalAlign=middle;whiteSpace=wrap;rounded=0;fontSize=26;fontFamily=Helvetica;fontColor=#000000;" vertex="1" parent="1">
          <mxGeometry x="1308" y="1774" width="60" height="30" as="geometry" />
        </mxCell>
        <mxCell id="eVUh2sTWQAKDTClY-ghB-157" style="edgeStyle=orthogonalEdgeStyle;shape=connector;curved=1;rounded=0;orthogonalLoop=1;jettySize=auto;html=1;exitX=1;exitY=0.5;exitDx=0;exitDy=0;entryX=0;entryY=0.5;entryDx=0;entryDy=0;dashed=1;labelBackgroundColor=default;strokeColor=default;strokeWidth=2;fontFamily=Helvetica;fontSize=11;fontColor=default;endArrow=classic;" edge="1" parent="1" source="eVUh2sTWQAKDTClY-ghB-126" target="eVUh2sTWQAKDTClY-ghB-127">
          <mxGeometry relative="1" as="geometry" />
        </mxCell>
        <mxCell id="eVUh2sTWQAKDTClY-ghB-126" value="$$3, 0$$" style="text;html=1;strokeColor=none;fillColor=none;align=center;verticalAlign=middle;whiteSpace=wrap;rounded=0;fontSize=26;fontFamily=Helvetica;fontColor=#000000;" vertex="1" parent="1">
          <mxGeometry x="876.5" y="1914" width="60" height="30" as="geometry" />
        </mxCell>
        <mxCell id="eVUh2sTWQAKDTClY-ghB-153" style="edgeStyle=orthogonalEdgeStyle;shape=connector;curved=1;rounded=0;orthogonalLoop=1;jettySize=auto;html=1;exitX=0.5;exitY=1;exitDx=0;exitDy=0;dashed=1;labelBackgroundColor=default;strokeColor=default;strokeWidth=2;fontFamily=Helvetica;fontSize=11;fontColor=default;endArrow=classic;" edge="1" parent="1" source="eVUh2sTWQAKDTClY-ghB-127">
          <mxGeometry relative="1" as="geometry">
            <mxPoint x="1050.3684210526317" y="1990.7894736842109" as="targetPoint" />
          </mxGeometry>
        </mxCell>
        <mxCell id="eVUh2sTWQAKDTClY-ghB-154" style="edgeStyle=orthogonalEdgeStyle;shape=connector;curved=1;rounded=0;orthogonalLoop=1;jettySize=auto;html=1;exitX=1;exitY=0.5;exitDx=0;exitDy=0;entryX=0;entryY=0.5;entryDx=0;entryDy=0;dashed=1;labelBackgroundColor=default;strokeColor=default;strokeWidth=2;fontFamily=Helvetica;fontSize=11;fontColor=default;endArrow=classic;" edge="1" parent="1" source="eVUh2sTWQAKDTClY-ghB-127" target="eVUh2sTWQAKDTClY-ghB-128">
          <mxGeometry relative="1" as="geometry" />
        </mxCell>
        <mxCell id="eVUh2sTWQAKDTClY-ghB-127" value="$$3, 1$$" style="text;html=1;strokeColor=none;fillColor=none;align=center;verticalAlign=middle;whiteSpace=wrap;rounded=0;fontSize=26;fontFamily=Helvetica;fontColor=#000000;" vertex="1" parent="1">
          <mxGeometry x="1020" y="1914" width="60" height="30" as="geometry" />
        </mxCell>
        <mxCell id="eVUh2sTWQAKDTClY-ghB-151" style="edgeStyle=orthogonalEdgeStyle;shape=connector;curved=1;rounded=0;orthogonalLoop=1;jettySize=auto;html=1;exitX=1;exitY=0.5;exitDx=0;exitDy=0;entryX=0;entryY=0.5;entryDx=0;entryDy=0;dashed=1;labelBackgroundColor=default;strokeColor=default;strokeWidth=2;fontFamily=Helvetica;fontSize=11;fontColor=default;endArrow=classic;" edge="1" parent="1" source="eVUh2sTWQAKDTClY-ghB-128" target="eVUh2sTWQAKDTClY-ghB-129">
          <mxGeometry relative="1" as="geometry" />
        </mxCell>
        <mxCell id="eVUh2sTWQAKDTClY-ghB-152" style="edgeStyle=orthogonalEdgeStyle;shape=connector;curved=1;rounded=0;orthogonalLoop=1;jettySize=auto;html=1;exitX=0.5;exitY=1;exitDx=0;exitDy=0;dashed=1;labelBackgroundColor=default;strokeColor=default;strokeWidth=2;fontFamily=Helvetica;fontSize=11;fontColor=default;endArrow=classic;" edge="1" parent="1" source="eVUh2sTWQAKDTClY-ghB-128">
          <mxGeometry relative="1" as="geometry">
            <mxPoint x="1194.0526315789475" y="1983.4210526315792" as="targetPoint" />
          </mxGeometry>
        </mxCell>
        <mxCell id="eVUh2sTWQAKDTClY-ghB-128" value="$$3, 2$$" style="text;html=1;strokeColor=none;fillColor=none;align=center;verticalAlign=middle;whiteSpace=wrap;rounded=0;fontSize=26;fontFamily=Helvetica;fontColor=#000000;" vertex="1" parent="1">
          <mxGeometry x="1164" y="1914" width="60" height="30" as="geometry" />
        </mxCell>
        <mxCell id="eVUh2sTWQAKDTClY-ghB-147" style="edgeStyle=orthogonalEdgeStyle;shape=connector;curved=1;rounded=0;orthogonalLoop=1;jettySize=auto;html=1;exitX=1;exitY=0.5;exitDx=0;exitDy=0;dashed=1;labelBackgroundColor=default;strokeColor=default;strokeWidth=2;fontFamily=Helvetica;fontSize=11;fontColor=default;endArrow=classic;" edge="1" parent="1" source="eVUh2sTWQAKDTClY-ghB-129">
          <mxGeometry relative="1" as="geometry">
            <mxPoint x="1406.6842105263158" y="1929.2105263157896" as="targetPoint" />
          </mxGeometry>
        </mxCell>
        <mxCell id="eVUh2sTWQAKDTClY-ghB-149" style="edgeStyle=orthogonalEdgeStyle;shape=connector;curved=1;rounded=0;orthogonalLoop=1;jettySize=auto;html=1;exitX=0.5;exitY=1;exitDx=0;exitDy=0;dashed=1;labelBackgroundColor=default;strokeColor=default;strokeWidth=2;fontFamily=Helvetica;fontSize=11;fontColor=default;endArrow=classic;" edge="1" parent="1" source="eVUh2sTWQAKDTClY-ghB-129">
          <mxGeometry relative="1" as="geometry">
            <mxPoint x="1337.7368421052633" y="1982.3684210526317" as="targetPoint" />
          </mxGeometry>
        </mxCell>
        <mxCell id="eVUh2sTWQAKDTClY-ghB-129" value="$$3, 3$$" style="text;html=1;strokeColor=none;fillColor=none;align=center;verticalAlign=middle;whiteSpace=wrap;rounded=0;fontSize=26;fontFamily=Helvetica;fontColor=#000000;" vertex="1" parent="1">
          <mxGeometry x="1308" y="1914" width="60" height="30" as="geometry" />
        </mxCell>
        <mxCell id="eVUh2sTWQAKDTClY-ghB-159" value="" style="endArrow=none;html=1;rounded=0;exitX=1.002;exitY=0.901;exitDx=0;exitDy=0;exitPerimeter=0;strokeWidth=2;" edge="1" parent="1">
          <mxGeometry width="50" height="50" relative="1" as="geometry">
            <mxPoint x="1386.24" y="441.34399999999994" as="sourcePoint" />
            <mxPoint x="1803" y="290.4" as="targetPoint" />
          </mxGeometry>
        </mxCell>
        <mxCell id="eVUh2sTWQAKDTClY-ghB-160" value="" style="endArrow=none;html=1;rounded=0;exitX=1.003;exitY=0.056;exitDx=0;exitDy=0;exitPerimeter=0;strokeWidth=2;" edge="1" parent="1">
          <mxGeometry width="50" height="50" relative="1" as="geometry">
            <mxPoint x="1386.36" y="150.66400000000002" as="sourcePoint" />
            <mxPoint x="1803" y="290.4" as="targetPoint" />
          </mxGeometry>
        </mxCell>
        <mxCell id="eVUh2sTWQAKDTClY-ghB-161" value="$$\pi$$" style="text;html=1;strokeColor=none;fillColor=none;align=center;verticalAlign=middle;whiteSpace=wrap;rounded=0;fontSize=18;" vertex="1" parent="1">
          <mxGeometry x="1343" y="273.4" width="25" height="30" as="geometry" />
        </mxCell>
        <mxCell id="eVUh2sTWQAKDTClY-ghB-162" value="" style="endArrow=classic;html=1;rounded=0;exitX=1;exitY=0.5;exitDx=0;exitDy=0;strokeWidth=2;fillColor=#dae8fc;strokeColor=#007FFF;" edge="1" parent="1">
          <mxGeometry width="50" height="50" relative="1" as="geometry">
            <mxPoint x="1509" y="192.99999999999997" as="sourcePoint" />
            <mxPoint x="1594" y="365" as="targetPoint" />
          </mxGeometry>
        </mxCell>
        <mxCell id="eVUh2sTWQAKDTClY-ghB-163" value="" style="endArrow=classic;html=1;rounded=0;strokeWidth=2;fillColor=#dae8fc;strokeColor=#007FFF;" edge="1" parent="1">
          <mxGeometry width="50" height="50" relative="1" as="geometry">
            <mxPoint x="1447" y="418.4" as="sourcePoint" />
            <mxPoint x="1509" y="193" as="targetPoint" />
          </mxGeometry>
        </mxCell>
        <mxCell id="eVUh2sTWQAKDTClY-ghB-164" value="$$\pi=\text{greedy}(V)$$" style="text;html=1;strokeColor=none;fillColor=none;align=center;verticalAlign=middle;whiteSpace=wrap;rounded=0;rotation=-20;fontSize=18;" vertex="1" parent="1">
          <mxGeometry x="1564.25" y="369" width="60" height="30" as="geometry" />
        </mxCell>
        <mxCell id="eVUh2sTWQAKDTClY-ghB-165" value="$$V = v^\pi$$" style="text;html=1;strokeColor=none;fillColor=none;align=center;verticalAlign=middle;whiteSpace=wrap;rounded=0;rotation=20;fontSize=18;" vertex="1" parent="1">
          <mxGeometry x="1504" y="183.4" width="151" height="30" as="geometry" />
        </mxCell>
        <mxCell id="eVUh2sTWQAKDTClY-ghB-166" value="$$\pi^*, v^*$$" style="text;html=1;strokeColor=none;fillColor=none;align=center;verticalAlign=middle;whiteSpace=wrap;rounded=0;fontSize=18;" vertex="1" parent="1">
          <mxGeometry x="1821" y="273.4" width="25" height="30" as="geometry" />
        </mxCell>
        <mxCell id="eVUh2sTWQAKDTClY-ghB-167" value="&lt;font style=&quot;font-size: 18px;&quot;&gt;$$\text{Greedy Policy Improvement}$$&lt;/font&gt;" style="text;html=1;strokeColor=none;fillColor=none;align=center;verticalAlign=middle;whiteSpace=wrap;rounded=0;rotation=-20;" vertex="1" parent="1">
          <mxGeometry x="1577.75" y="393" width="60" height="30" as="geometry" />
        </mxCell>
        <mxCell id="eVUh2sTWQAKDTClY-ghB-168" value="&lt;font style=&quot;font-size: 18px;&quot;&gt;$$\text{Iterative Policy Evaluation}$$&lt;/font&gt;" style="text;html=1;strokeColor=none;fillColor=none;align=center;verticalAlign=middle;whiteSpace=wrap;rounded=0;rotation=20;" vertex="1" parent="1">
          <mxGeometry x="1463" y="158.4" width="276" height="30" as="geometry" />
        </mxCell>
        <mxCell id="eVUh2sTWQAKDTClY-ghB-169" value="" style="endArrow=classic;html=1;rounded=0;strokeWidth=2;fillColor=#dae8fc;strokeColor=#007FFF;" edge="1" parent="1" source="eVUh2sTWQAKDTClY-ghB-161">
          <mxGeometry width="50" height="50" relative="1" as="geometry">
            <mxPoint x="1378" y="298" as="sourcePoint" />
            <mxPoint x="1447" y="418" as="targetPoint" />
          </mxGeometry>
        </mxCell>
        <mxCell id="eVUh2sTWQAKDTClY-ghB-170" value="" style="endArrow=classic;html=1;rounded=0;exitX=1;exitY=0.5;exitDx=0;exitDy=0;strokeWidth=2;fillColor=#dae8fc;strokeColor=#007FFF;" edge="1" parent="1">
          <mxGeometry width="50" height="50" relative="1" as="geometry">
            <mxPoint x="1652" y="240.99999999999994" as="sourcePoint" />
            <mxPoint x="1698" y="327" as="targetPoint" />
          </mxGeometry>
        </mxCell>
        <mxCell id="eVUh2sTWQAKDTClY-ghB-171" value="" style="endArrow=classic;html=1;rounded=0;strokeWidth=2;fillColor=#dae8fc;strokeColor=#007FFF;" edge="1" parent="1">
          <mxGeometry width="50" height="50" relative="1" as="geometry">
            <mxPoint x="1594" y="364.7" as="sourcePoint" />
            <mxPoint x="1652" y="241" as="targetPoint" />
          </mxGeometry>
        </mxCell>
        <mxCell id="eVUh2sTWQAKDTClY-ghB-172" value="" style="endArrow=classic;html=1;rounded=0;exitX=1;exitY=0.5;exitDx=0;exitDy=0;strokeWidth=2;fillColor=#dae8fc;strokeColor=#007FFF;" edge="1" parent="1">
          <mxGeometry width="50" height="50" relative="1" as="geometry">
            <mxPoint x="1730" y="266.99999999999994" as="sourcePoint" />
            <mxPoint x="1751" y="309" as="targetPoint" />
          </mxGeometry>
        </mxCell>
        <mxCell id="eVUh2sTWQAKDTClY-ghB-173" value="" style="endArrow=classic;html=1;rounded=0;strokeWidth=2;fillColor=#dae8fc;strokeColor=#007FFF;" edge="1" parent="1">
          <mxGeometry width="50" height="50" relative="1" as="geometry">
            <mxPoint x="1698" y="326.7" as="sourcePoint" />
            <mxPoint x="1730" y="267" as="targetPoint" />
          </mxGeometry>
        </mxCell>
        <mxCell id="eVUh2sTWQAKDTClY-ghB-174" value="" style="endArrow=classic;html=1;rounded=0;exitX=1;exitY=0.5;exitDx=0;exitDy=0;strokeWidth=2;fillColor=#dae8fc;strokeColor=#007FFF;" edge="1" parent="1">
          <mxGeometry width="50" height="50" relative="1" as="geometry">
            <mxPoint x="1772" y="280.99999999999994" as="sourcePoint" />
            <mxPoint x="1797" y="292" as="targetPoint" />
          </mxGeometry>
        </mxCell>
        <mxCell id="eVUh2sTWQAKDTClY-ghB-175" value="" style="endArrow=classic;html=1;rounded=0;strokeWidth=2;fillColor=#dae8fc;strokeColor=#007FFF;" edge="1" parent="1">
          <mxGeometry width="50" height="50" relative="1" as="geometry">
            <mxPoint x="1751" y="308.7" as="sourcePoint" />
            <mxPoint x="1772" y="281" as="targetPoint" />
          </mxGeometry>
        </mxCell>
      </root>
    </mxGraphModel>
  </diagram>
</mxfile>
